<?xml version="1.0" encoding="UTF-8" standalone="no"?>
<svg width="30px" height="90px" viewBox="0 0 30 90" version="1.1" xmlns="http://www.w3.org/2000/svg" xmlns:xlink="http://www.w3.org/1999/xlink">
    <g stroke="none" stroke-width="1" fill="none" fill-rule="evenodd">
        <g id="arrow_right" transform="translate(15.000000, 75.500000) rotate(-180.000000) translate(-15.000000, -75.500000) translate(9.000000, 71.000000)" stroke="#000000" stroke-linecap="square">
            <path d="M0.5,4.5 L4.5,0.5"></path>
            <path d="M0.5,8.5 L4.5,4.5" transform="translate(2.500000, 6.500000) scale(-1, 1) translate(-2.500000, -6.500000) "></path>
            <path d="M1.5,4.5 L11.5,4.5"></path>
        </g>
        <g id="arrow_left" transform="translate(9.000000, 41.000000)" stroke="#000000" stroke-linecap="square">
            <path d="M0.5,4.5 L4.5,0.5"></path>
            <path d="M0.5,8.5 L4.5,4.5" transform="translate(2.500000, 6.500000) scale(-1, 1) translate(-2.500000, -6.500000) "></path>
            <path d="M1.5,4.5 L11.5,4.5"></path>
        </g>
        <g id="select" transform="translate(13.000000, 11.000000)" fill="#000000">
            <path d="M0,5 L4,5 L2,8 L0,5 Z"></path>
            <polygon points="2 0 4 3 0 3 "></polygon>
        </g>
    </g>
</svg>