<?xml version="1.0" encoding="utf-8"?>
<!DOCTYPE svg PUBLIC "-//W3C//DTD SVG 1.1//EN" "http://www.w3.org/Graphics/SVG/1.1/DTD/svg11.dtd">
<svg version="1.1" id="Ebene_1" xmlns="http://www.w3.org/2000/svg" xmlns:xlink="http://www.w3.org/1999/xlink" x="0px" y="0px"
	 width="170px" height="170px" viewBox="0 0 170 170" enable-background="new 0 0 170 170" xml:space="preserve">
	<g>
		<path fill="#FFFFFF" d="M11.169,74.32l0.675-0.446c0.613,0.803,0.875,1.723,0.77,2.702c-0.227,2.086-1.694,3.278-4.473,2.978
			c-3.076-0.333-3.908-2.33-3.734-3.939c0.09-0.834,0.473-1.806,1.59-2.433l0.44,0.723c-0.663,0.447-1.135,1.011-1.224,1.834
			c-0.166,1.526,0.958,2.625,2.974,2.843c2.087,0.226,3.448-0.435,3.634-2.14C11.899,75.702,11.682,75.039,11.169,74.32z"/>
		<path fill="#FFFFFF" d="M13.809,69.424c-0.439,2.004-2.053,2.916-4.726,2.33c-3.013-0.661-3.675-2.625-3.325-4.219
			c0.369-1.688,1.758-2.919,4.746-2.264C13.188,65.86,14.247,67.419,13.809,69.424z M13.043,69.158
			c0.373-1.7-1.117-2.579-2.712-2.928c-1.384-0.304-3.394-0.265-3.784,1.516c-0.376,1.712,1.115,2.702,2.709,3.052
			C10.803,71.136,12.619,71.092,13.043,69.158z"/>
		<path fill="#FFFFFF" d="M9.499,55.516l7.54,2.629l-0.341,0.975l-7.644,1.645l-0.004,0.012l6.303,2.198l-0.308,0.884l-7.538-2.629
			l0.363-1.043l7.528-1.608c0.004-0.011,0.004-0.011,0.004-0.011L9.191,56.4L9.499,55.516z"/>
		<path fill="#FFFFFF" d="M10.906,52.188l1.067-2.189c0.972-1.995,2.704-2.726,4.914-1.648c2.848,1.388,3.109,3.397,2.289,5.08
			l-1.099,2.254L10.906,52.188z M17.803,54.495l0.694-1.423c0.694-1.424,0.106-2.818-1.824-3.759c-2.2-1.073-3.362-0.305-4.04,1.087
			l-0.621,1.272L17.803,54.495z"/>
		<path fill="#FFFFFF" d="M15.648,43.146l4.641,2.946c1.186,0.752,1.977,0.288,2.582-0.664c0.592-0.932,0.521-1.874-0.494-2.516
			l-4.69-2.978l0.509-0.8l4.843,3.074c1.297,0.823,1.394,2.262,0.479,3.701c-0.997,1.57-2.146,1.992-3.717,0.996l-4.66-2.958
			L15.648,43.146z"/>
		<path fill="#FFFFFF" d="M28.51,36.291l0.811-0.014c0.085,1.006-0.189,1.925-0.805,2.692c-1.312,1.639-3.192,1.855-5.373,0.107
			c-2.417-1.936-2.046-4.068-1.033-5.332c0.525-0.655,1.37-1.27,2.65-1.197l-0.018,0.846c-0.801,0.021-1.502,0.244-2.019,0.889
			c-0.96,1.199-0.604,2.73,0.979,3.999c1.639,1.312,3.143,1.487,4.215,0.149C28.384,37.848,28.557,37.172,28.51,36.291z"/>
		<path fill="#FFFFFF" d="M29.229,26.184l0.583,0.572l-1.697,1.731l5.118,5.015l-0.664,0.677l-5.117-5.015l-1.664,1.698
			l-0.582-0.571L29.229,26.184z"/>
		<path fill="#FFFFFF" d="M36.359,30.538l-5.278-5.985l0.712-0.627l5.277,5.985L36.359,30.538z"/>
		<path fill="#FFFFFF" d="M39.191,18.141l4.746,6.414l-0.83,0.613l-7.236-2.943l-0.01,0.007l3.967,5.363l-0.752,0.556l-4.746-6.414
			l0.887-0.657l7.123,2.909c0.01-0.008,0.01-0.008,0.01-0.008l-3.91-5.285L39.191,18.141z"/>
		<path fill="#FFFFFF" d="M50.863,19.725c-0.35,0.713-1.027,1.436-1.934,1.957c-1.819,1.047-3.607,0.538-4.996-1.875
			c-1.55-2.695-0.51-4.497,0.873-5.293c0.708-0.407,1.738-0.708,2.967-0.211l-0.324,0.81c-0.769-0.277-1.507-0.31-2.245,0.115
			c-1.312,0.755-1.476,2.275-0.47,4.023c1.078,1.872,2.371,2.581,3.88,1.713c0.541-0.311,1.047-0.851,1.195-1.172l-1.186-2.06
			l-1.571,0.904l-0.406-0.708l2.393-1.376L50.863,19.725z"/>
		<path fill="#FFFFFF" d="M55.799,16.562c0.438,0.101,1.39,0.194,2.273-0.151c0.749-0.292,1.475-0.845,1.029-1.986
			c-0.35-0.895-1.244-0.88-2.236-0.778c-1.187,0.128-2.395,0.135-2.931-1.24c-0.483-1.242,0.159-2.433,1.558-2.978
			c1.006-0.393,2.073-0.267,2.804,0.054l-0.261,0.784c-0.777-0.277-1.553-0.349-2.258-0.073c-0.626,0.245-1.327,0.826-0.961,1.765
			c0.344,0.884,1.206,0.844,2.28,0.761c1.155-0.077,2.36-0.096,2.909,1.313c0.545,1.398-0.09,2.547-1.655,3.157
			c-1.073,0.419-2.239,0.371-2.637,0.242L55.799,16.562z"/>
		<path fill="#FFFFFF" d="M62.995,15.394L60.641,7.77l0.906-0.28l2.354,7.625L62.995,15.394z"/>
		<path fill="#FFFFFF" d="M69.485,5.464l0.185,0.795l-2.361,0.55l1.623,6.979l-0.924,0.214l-1.623-6.979L64.07,7.561l-0.185-0.795
			L69.485,5.464z"/>
		<path fill="#FFFFFF" d="M72.1,5.03l4.422-0.607l0.11,0.809l-3.483,0.478l0.367,2.663L76.51,7.96l0.11,0.809L73.626,9.18
			l0.387,2.817l3.565-0.489l0.111,0.807l-4.504,0.619L72.1,5.03z"/>
		<path fill="#FFFFFF" d="M79.645,10.784c0.383,0.236,1.252,0.631,2.199,0.591c0.804-0.034,1.668-0.323,1.615-1.546
			c-0.04-0.959-0.893-1.235-1.863-1.458c-1.164-0.262-2.309-0.646-2.371-2.121C79.168,4.92,80.161,4,81.66,3.937
			c1.078-0.046,2.047,0.417,2.634,0.957l-0.499,0.658c-0.646-0.513-1.357-0.831-2.113-0.799c-0.67,0.029-1.521,0.353-1.479,1.36
			c0.041,0.947,0.868,1.188,1.912,1.457c1.118,0.301,2.263,0.672,2.327,2.182c0.062,1.499-0.908,2.381-2.586,2.453
			c-1.151,0.048-2.238-0.373-2.573-0.624L79.645,10.784z"/>
		<path fill="#FFFFFF" d="M90.184,10.762c0.345,0.289,1.15,0.803,2.093,0.897c0.801,0.081,1.698-0.083,1.819-1.302
			c0.096-0.955-0.709-1.349-1.639-1.708c-1.115-0.425-2.194-0.968-2.048-2.437c0.133-1.326,1.247-2.094,2.741-1.945
			c1.074,0.107,1.968,0.704,2.473,1.321l-0.589,0.58c-0.567-0.599-1.225-1.015-1.978-1.09c-0.67-0.067-1.558,0.134-1.658,1.136
			c-0.095,0.944,0.69,1.3,1.687,1.714c1.063,0.457,2.146,0.987,1.994,2.492c-0.149,1.492-1.236,2.229-2.908,2.061
			c-1.147-0.115-2.163-0.687-2.46-0.982L90.184,10.762z"/>
		<path fill="#FFFFFF" d="M97.125,12.992l1.373-7.864l0.934,0.164l-1.372,7.864L97.125,12.992z"/>
		<path fill="#FFFFFF" d="M108.578,7.45l-2.041,7.719l-0.997-0.263l-2.229-7.494L103.3,7.408l-1.706,6.455l-0.906-0.24l2.041-7.719
			l1.068,0.282l2.184,7.383c0.012,0.002,0.012,0.002,0.012,0.002l1.682-6.36L108.578,7.45z"/>
		<path fill="#FFFFFF" d="M114.492,16.483l0.254,0.77c-0.936,0.383-1.894,0.396-2.812,0.038c-1.957-0.763-2.726-2.493-1.71-5.099
			c1.125-2.887,3.271-3.171,4.781-2.583c0.783,0.306,1.623,0.929,1.938,2.173l-0.814,0.237c-0.259-0.758-0.682-1.361-1.453-1.662
			c-1.432-0.558-2.786,0.241-3.523,2.131c-0.764,1.958-0.48,3.447,1.119,4.071C112.966,16.83,113.663,16.793,114.492,16.483z"/>
		<path fill="#FFFFFF" d="M119.871,11.881l3.98,2.022l-0.371,0.728l-3.134-1.593l-1.218,2.397l2.696,1.37l-0.37,0.728l-2.695-1.37
			l-1.289,2.536l3.211,1.63l-0.371,0.728l-4.055-2.06L119.871,11.881z"/>
		<path fill="#FFFFFF" d="M128.412,18.007c0.875-0.169,1.885-0.025,2.674,0.521c1.105,0.765,1.26,1.849,0.576,2.835
			c-0.484,0.701-1.197,1.037-2.111,1.281l-3.64,0.94l3.217,2.224l-0.442,0.641l-4.185-2.893l0.39-0.562l4.045-1.083
			c1.035-0.275,1.458-0.42,1.888-1.042c0.471-0.682,0.263-1.35-0.329-1.759c-0.603-0.417-1.381-0.387-1.979-0.304L128.412,18.007z"
			/>
		<path fill="#FFFFFF" d="M136.517,27.781c-1.81,2.16-3.311,2.514-4.671,1.375c-1.334-1.117-1.269-2.597,0.541-4.756
			c1.765-2.105,3.383-2.393,4.67-1.314C138.279,24.109,138.365,25.575,136.517,27.781z M135.775,27.191
			c1.609-1.921,1.523-2.885,0.742-3.539c-0.818-0.686-1.831-0.503-3.473,1.456c-1.531,1.829-1.479,2.812-0.68,3.482
			C133.129,29.229,134.119,29.167,135.775,27.191z"/>
		<path fill="#FFFFFF" d="M141.836,33.047c-2.014,1.975-3.543,2.182-4.787,0.914c-1.219-1.243-1.01-2.709,1.004-4.684
			c1.961-1.925,3.602-2.053,4.777-0.854C143.947,29.563,143.891,31.03,141.836,33.047z M141.154,32.388
			c1.79-1.757,1.799-2.724,1.085-3.452c-0.749-0.762-1.776-0.68-3.601,1.111c-1.705,1.672-1.748,2.656-1.017,3.401
			C138.32,34.159,139.312,34.194,141.154,32.388z"/>
		<path fill="#FFFFFF" d="M147.053,37.184l-1.98,1.596l0.722,0.897l-0.588,0.474l-0.724-0.896l-1.561,1.257l-0.594-0.739
			l1.561-1.257l-2.137-2.653l0.579-0.466l5.517-1.317l0.175,0.829l-5.095,1.209l1.572,1.952l0.664-0.534l1.534-0.79L147.053,37.184z
			"/>
	</g>
</svg>
