<?xml version="1.0" encoding="utf-8"?>
<!DOCTYPE svg PUBLIC "-//W3C//DTD SVG 1.1//EN" "http://www.w3.org/Graphics/SVG/1.1/DTD/svg11.dtd">
<svg version="1.1" id="logo" xmlns="http://www.w3.org/2000/svg" xmlns:xlink="http://www.w3.org/1999/xlink" x="0px" y="0px"
	 width="189px" height="37px" viewBox="0 0 189 37" enable-background="new 0 0 189 37" xml:space="preserve">
	<g>
		<defs>
			<path id="symphony" d="M13.911,7.539c0-1.217-1.767-2.027-3.532-2.027c-2.254,0-3.908,1.142-3.908,2.802
				c0,4.464,12.551,3.578,12.551,12.173c0,4.166-3.27,7.709-8.868,7.709c-5.899,0-9.169-4.059-9.169-4.059l2.78-3.393
				c0,0,2.743,3.098,6.465,3.098c2.027,0,3.832-1.068,3.832-3.098c0-4.464-12.551-4.095-12.551-12.245
				c0-4.242,3.758-7.378,8.905-7.378c3.119,0,7.929,1.439,7.929,5.165v2.433h-4.434V7.539L13.911,7.539z M38.297,12.924
				c-0.565,0-0.865,0.111-1.091,0.664L30.33,30.592c-1.352,3.395-4.058,4.906-6.914,4.906c-3.006,0-4.847-1.918-4.847-1.918
				l1.841-3.32c0,0,1.165,1.291,2.743,1.291c1.315,0,2.48-0.773,3.156-2.398l0.639-1.438l-6.388-14.127
				c-0.225-0.553-0.487-0.664-1.014-0.664h-0.564V8.94h3.158c1.352,0,2.027,0.48,2.517,1.771l3.756,9.405
				c0.376,0.959,0.679,2.508,0.679,2.508h0.074c0,0,0.3-1.549,0.639-2.508l3.27-9.405c0.449-1.291,1.238-1.771,2.554-1.771h3.232
				v3.983H38.297L38.297,12.924z M67.643,27.752c-1.805,0-2.556-0.736-2.556-2.508v-8.705c0-2.139-0.413-3.762-2.631-3.762
				c-2.367,0-4.058,1.954-4.584,4.315c-0.226,0.737-0.3,1.511-0.3,2.397v8.262h-4.773V16.539c0-2.029-0.3-3.762-2.591-3.762
				c-2.406,0-4.021,1.954-4.623,4.353c-0.187,0.737-0.3,1.513-0.3,2.36v8.262h-4.734V13.735c0-0.553-0.3-0.812-0.826-0.812h-1.504
				V8.94h4.397c1.69,0,2.517,0.775,2.517,2.104v0.553c0,0.406-0.037,0.812-0.037,0.812h0.074c0.902-1.844,3.195-3.909,6.201-3.909
				c2.894,0,4.771,1.327,5.597,3.872h0.076c1.016-2.028,3.495-3.872,6.539-3.872c3.981,0,6.274,2.213,6.274,7.154v7.341
				c0,0.516,0.3,0.812,0.826,0.812h1.465v3.945H67.643L67.643,27.752z M84.324,28.195c-3.794,0-5.485-2.471-5.485-2.471h-0.074
				c0,0,0.074,0.662,0.074,1.621v7.783h-4.734V13.735c0-0.553-0.3-0.812-0.826-0.812h-1.504V8.94h4.247
				c1.766,0,2.404,0.775,2.404,1.808c0,0.443,0,0.738,0,0.738h0.076c0,0,1.615-2.987,6.086-2.987c5.188,0,8.529,4.02,8.529,9.847
				C93.117,24.322,89.361,28.195,84.324,28.195L84.324,28.195z M83.536,12.519c-2.48,0-4.811,1.771-4.811,5.938
				c0,2.914,1.578,5.791,4.734,5.791c2.632,0,4.848-2.102,4.848-5.828C88.308,14.843,86.354,12.519,83.536,12.519L83.536,12.519z
				 M110.93,27.752c-1.766,0-2.518-0.736-2.518-2.508v-8.631c0-2.287-0.639-3.836-3.043-3.836c-2.52,0-4.473,1.623-5.188,3.908
				c-0.225,0.738-0.299,1.549-0.299,2.436v8.631h-4.773V6.359c0-0.553-0.301-0.812-0.826-0.812h-1.502V1.564h4.545
				c1.768,0,2.557,0.774,2.557,2.471v6.602c0,0.924-0.076,1.588-0.076,1.588h0.076c0.902-1.808,3.268-3.726,6.574-3.726
				c4.285,0,6.688,2.176,6.688,7.154v7.341c0,0.516,0.301,0.812,0.826,0.812h1.504v3.945H110.93L110.93,27.752z M125.996,28.195
				c-5.822,0-10.482-4.059-10.482-9.85c0-5.752,4.66-9.847,10.482-9.847c5.863,0,10.52,4.095,10.52,9.847
				C136.516,24.137,131.859,28.195,125.996,28.195L125.996,28.195z M125.996,12.482c-3.08,0-5.674,2.396-5.674,5.863
				c0,3.506,2.594,5.865,5.674,5.865c3.119,0,5.711-2.359,5.711-5.865C131.707,14.879,129.115,12.482,125.996,12.482L125.996,12.482z
				 M154.777,27.752c-1.803,0-2.555-0.736-2.555-2.508v-8.631c0-2.287-0.6-3.836-3.006-3.836c-2.555,0-4.471,1.585-5.148,3.836
				c-0.262,0.774-0.375,1.621-0.375,2.508v8.631h-4.734V13.735c0-0.553-0.299-0.812-0.824-0.812h-1.506V8.94h4.398
				c1.691,0,2.518,0.775,2.518,2.104v0.553c0,0.406-0.076,0.812-0.076,0.812h0.076c0.824-1.586,2.893-3.909,6.76-3.909
				c4.248,0,6.691,2.176,6.691,7.154v7.341c0,0.516,0.301,0.812,0.826,0.812h1.502v3.945H154.777L154.777,27.752z M177.51,12.924
				c-0.562,0-0.863,0.111-1.088,0.664l-6.879,17.004c-1.35,3.395-4.057,4.906-6.912,4.906c-3.004,0-4.846-1.918-4.846-1.918
				l1.842-3.32c0,0,1.164,1.291,2.742,1.291c1.314,0,2.479-0.773,3.154-2.398l0.641-1.438l-6.389-14.127
				c-0.227-0.553-0.488-0.664-1.014-0.664h-0.564V8.94h3.156c1.354,0,2.027,0.48,2.518,1.771l3.758,9.405
				c0.377,0.959,0.678,2.508,0.678,2.508h0.072c0,0,0.303-1.549,0.639-2.508l3.27-9.405c0.451-1.291,1.242-1.771,2.557-1.771h3.23
				v3.983H177.51L177.51,12.924z"/>
		</defs>
		<use xlink:href="#symphony" overflow="visible"/>
	</g>
	<circle fill="#B40B51" cx="182.993" cy="23.64" r="4.993"/>
</svg>
